<mxfile host="app.diagrams.net" agent="Mozilla/5.0 (Macintosh; Intel Mac OS X 10_15_7) AppleWebKit/537.36 (KHTML, like Gecko) Chrome/138.0.0.0 Safari/537.36" version="27.2.0" pages="3">
  <diagram id="R2lEEEUBdFMjLlhIrx00" name="Page-1">
    <mxGraphModel dx="604" dy="638" grid="1" gridSize="10" guides="1" tooltips="1" connect="1" arrows="1" fold="1" page="1" pageScale="1" pageWidth="850" pageHeight="1100" math="0" shadow="0" extFonts="Permanent Marker^https://fonts.googleapis.com/css?family=Permanent+Marker">
      <root>
        <mxCell id="0" />
        <mxCell id="1" parent="0" />
        <mxCell id="CF0TtlQtgZgB2bUNw5YA-5" value="chats" style="swimlane;fontStyle=0;childLayout=stackLayout;horizontal=1;startSize=30;horizontalStack=0;resizeParent=1;resizeParentMax=0;resizeLast=0;collapsible=1;marginBottom=0;whiteSpace=wrap;html=1;movable=0;resizable=0;rotatable=0;deletable=0;editable=0;locked=1;connectable=0;" parent="1" vertex="1">
          <mxGeometry x="330" y="260" width="140" height="180" as="geometry">
            <mxRectangle x="330" y="260" width="70" height="30" as="alternateBounds" />
          </mxGeometry>
        </mxCell>
        <mxCell id="CF0TtlQtgZgB2bUNw5YA-6" value="id: int (PK)" style="text;strokeColor=none;fillColor=none;align=left;verticalAlign=middle;spacingLeft=4;spacingRight=4;overflow=hidden;points=[[0,0.5],[1,0.5]];portConstraint=eastwest;rotatable=0;whiteSpace=wrap;html=1;" parent="CF0TtlQtgZgB2bUNw5YA-5" vertex="1">
          <mxGeometry y="30" width="140" height="30" as="geometry" />
        </mxCell>
        <mxCell id="CF0TtlQtgZgB2bUNw5YA-7" value="user_message: text" style="text;strokeColor=none;fillColor=none;align=left;verticalAlign=middle;spacingLeft=4;spacingRight=4;overflow=hidden;points=[[0,0.5],[1,0.5]];portConstraint=eastwest;rotatable=0;whiteSpace=wrap;html=1;" parent="CF0TtlQtgZgB2bUNw5YA-5" vertex="1">
          <mxGeometry y="60" width="140" height="30" as="geometry" />
        </mxCell>
        <mxCell id="CF0TtlQtgZgB2bUNw5YA-8" value="ai_response: text" style="text;strokeColor=none;fillColor=none;align=left;verticalAlign=middle;spacingLeft=4;spacingRight=4;overflow=hidden;points=[[0,0.5],[1,0.5]];portConstraint=eastwest;rotatable=0;whiteSpace=wrap;html=1;" parent="CF0TtlQtgZgB2bUNw5YA-5" vertex="1">
          <mxGeometry y="90" width="140" height="30" as="geometry" />
        </mxCell>
        <mxCell id="CF0TtlQtgZgB2bUNw5YA-10" value="created_at: datetime" style="text;strokeColor=none;fillColor=none;align=left;verticalAlign=middle;spacingLeft=4;spacingRight=4;overflow=hidden;points=[[0,0.5],[1,0.5]];portConstraint=eastwest;rotatable=0;whiteSpace=wrap;html=1;" parent="CF0TtlQtgZgB2bUNw5YA-5" vertex="1">
          <mxGeometry y="120" width="140" height="30" as="geometry" />
        </mxCell>
        <mxCell id="CF0TtlQtgZgB2bUNw5YA-11" value="updated_at: datetime" style="text;strokeColor=none;fillColor=none;align=left;verticalAlign=middle;spacingLeft=4;spacingRight=4;overflow=hidden;points=[[0,0.5],[1,0.5]];portConstraint=eastwest;rotatable=0;whiteSpace=wrap;html=1;" parent="CF0TtlQtgZgB2bUNw5YA-5" vertex="1">
          <mxGeometry y="150" width="140" height="30" as="geometry" />
        </mxCell>
      </root>
    </mxGraphModel>
  </diagram>
  <diagram id="7YWp4bJXTSHMCS9kiecz" name="ページ2">
    <mxGraphModel dx="1244" dy="932" grid="0" gridSize="10" guides="1" tooltips="1" connect="1" arrows="1" fold="1" page="0" pageScale="1" pageWidth="827" pageHeight="1169" math="0" shadow="0">
      <root>
        <mxCell id="0" />
        <mxCell id="1" parent="0" />
        <mxCell id="bXon6RkXwu6lWcTofmJk-1" value="ログイン画面" style="swimlane;whiteSpace=wrap;html=1;" vertex="1" parent="1">
          <mxGeometry x="-6" y="-35" width="123" height="75" as="geometry" />
        </mxCell>
        <mxCell id="bXon6RkXwu6lWcTofmJk-5" value="チャット画面" style="swimlane;whiteSpace=wrap;html=1;" vertex="1" parent="1">
          <mxGeometry x="225" y="81" width="123" height="75" as="geometry" />
        </mxCell>
        <mxCell id="bXon6RkXwu6lWcTofmJk-6" value="設定画面" style="swimlane;whiteSpace=wrap;html=1;" vertex="1" parent="1">
          <mxGeometry x="515" y="81" width="123" height="75" as="geometry" />
        </mxCell>
        <mxCell id="bXon6RkXwu6lWcTofmJk-7" value="エラー画面" style="swimlane;whiteSpace=wrap;html=1;" vertex="1" parent="1">
          <mxGeometry x="225" y="235" width="123" height="75" as="geometry" />
        </mxCell>
        <mxCell id="bXon6RkXwu6lWcTofmJk-13" value="" style="endArrow=classic;html=1;rounded=0;fontSize=12;startSize=8;endSize=8;curved=1;" edge="1" parent="1">
          <mxGeometry relative="1" as="geometry">
            <mxPoint x="58" y="121" as="sourcePoint" />
            <mxPoint x="225" y="121" as="targetPoint" />
          </mxGeometry>
        </mxCell>
        <mxCell id="bXon6RkXwu6lWcTofmJk-14" value="ログイン成功" style="edgeLabel;resizable=0;html=1;;align=center;verticalAlign=middle;" connectable="0" vertex="1" parent="bXon6RkXwu6lWcTofmJk-13">
          <mxGeometry relative="1" as="geometry" />
        </mxCell>
        <mxCell id="bXon6RkXwu6lWcTofmJk-17" value="" style="endArrow=classic;html=1;rounded=0;fontSize=12;startSize=8;endSize=8;curved=1;" edge="1" parent="1">
          <mxGeometry relative="1" as="geometry">
            <mxPoint x="58" y="265" as="sourcePoint" />
            <mxPoint x="225" y="265" as="targetPoint" />
          </mxGeometry>
        </mxCell>
        <mxCell id="bXon6RkXwu6lWcTofmJk-18" value="ログイン失敗" style="edgeLabel;resizable=0;html=1;;align=center;verticalAlign=middle;" connectable="0" vertex="1" parent="bXon6RkXwu6lWcTofmJk-17">
          <mxGeometry relative="1" as="geometry" />
        </mxCell>
        <mxCell id="bXon6RkXwu6lWcTofmJk-19" value="" style="endArrow=none;html=1;rounded=0;fontSize=12;startSize=8;endSize=8;curved=1;entryX=0.5;entryY=1;entryDx=0;entryDy=0;" edge="1" parent="1" target="bXon6RkXwu6lWcTofmJk-1">
          <mxGeometry width="50" height="50" relative="1" as="geometry">
            <mxPoint x="56" y="266" as="sourcePoint" />
            <mxPoint x="110" y="216" as="targetPoint" />
          </mxGeometry>
        </mxCell>
        <mxCell id="bXon6RkXwu6lWcTofmJk-23" value="" style="endArrow=classic;html=1;rounded=0;fontSize=12;startSize=8;endSize=8;curved=1;" edge="1" parent="1">
          <mxGeometry relative="1" as="geometry">
            <mxPoint x="348" y="123" as="sourcePoint" />
            <mxPoint x="515" y="123" as="targetPoint" />
          </mxGeometry>
        </mxCell>
        <mxCell id="bXon6RkXwu6lWcTofmJk-24" value="設定クリック" style="edgeLabel;resizable=0;html=1;;align=center;verticalAlign=middle;" connectable="0" vertex="1" parent="bXon6RkXwu6lWcTofmJk-23">
          <mxGeometry relative="1" as="geometry" />
        </mxCell>
      </root>
    </mxGraphModel>
  </diagram>
  <diagram id="IEu6TmtE9B2h3Dg_hTaR" name="ページ3">
    <mxGraphModel dx="604" dy="638" grid="0" gridSize="10" guides="1" tooltips="1" connect="1" arrows="1" fold="1" page="0" pageScale="1" pageWidth="827" pageHeight="1169" math="0" shadow="0">
      <root>
        <mxCell id="0" />
        <mxCell id="1" parent="0" />
      </root>
    </mxGraphModel>
  </diagram>
</mxfile>
